<svg height="511pt" viewBox="1 -23 511.99998 511" width="511pt" xmlns="http://www.w3.org/2000/svg"><path d="m473.933594 259.574219c-8.195313-16.769531-8.195313-36.378907 0-53.148438 14.335937-29.320312 2.832031-64.726562-26-80.027343-16.488282-8.746094-28.015625-24.613282-31.238282-42.996094-5.640624-32.148438-35.757812-54.03125-68.074218-49.460938-18.480469 2.613282-37.132813-3.445312-50.546875-16.421875-23.460938-22.691406-60.6875-22.691406-84.144531 0-13.414063 12.976563-32.066407 19.039063-50.546876 16.421875-32.316406-4.570312-62.4375 17.3125-68.074218 49.460938-3.226563 18.382812-14.753906 34.25-31.242188 42.996094-28.832031 15.296874-40.335937 50.703124-26 80.027343 8.195313 16.769531 8.195313 36.378907 0 53.148438-14.335937 29.320312-2.832031 64.726562 26 80.023437 16.488282 8.75 28.015625 24.617188 31.242188 43 5.636718 32.148438 35.757812 54.03125 68.074218 49.457032 18.480469-2.613282 37.128907 3.449218 50.546876 16.425781 23.457031 22.691406 60.6875 22.691406 84.144531 0 13.414062-12.976563 32.066406-19.039063 50.546875-16.425781 32.316406 4.574218 62.433594-17.308594 68.074218-49.457032 3.222657-18.382812 14.75-34.25 31.238282-43 28.832031-15.292968 40.335937-50.699218 26-80.023437zm0 0" fill="#fecc2e"/><path d="m256 425.5c-5.351562 0-10.414062-2.050781-14.261719-5.769531-18.84375-18.230469-43.660156-28.269531-69.878906-28.269531-4.691406 0-9.429687.332031-14.078125.988281-.984375.140625-1.972656.210937-2.941406.210937-9.941406 0-18.410156-7.140625-20.132813-16.972656-5.394531-30.753906-24.308593-56.785156-51.890625-71.421875-9.828125-5.214844-13.699218-17.128906-8.8125-27.121094 13.710938-28.054687 13.710938-60.230469 0-88.28125-4.886718-9.996093-1.015625-21.914062 8.8125-27.128906 27.582032-14.632813 46.496094-40.664063 51.890625-71.421875 1.726563-9.832031 10.191407-16.96875 20.132813-16.96875.972656 0 1.960937.066406 2.941406.207031 4.648438.65625 9.386719.992188 14.082031.992188 26.21875 0 51.035157-10.042969 69.878907-28.273438 3.847656-3.71875 8.910156-5.769531 14.261718-5.769531 5.347656 0 10.414063 2.050781 14.257813 5.769531 18.847656 18.234375 43.664062 28.273438 69.882812 28.273438 4.695313 0 9.429688-.335938 14.082031-.992188.976563-.140625 1.964844-.210937 2.9375-.210937 9.941407 0 18.40625 7.140625 20.132813 16.972656 5.394531 30.753906 24.308594 56.789062 51.890625 71.421875 9.828125 5.214844 13.699219 17.128906 8.8125 27.125-13.710938 28.050781-13.710938 60.226563 0 88.28125 4.886719 9.996094 1.015625 21.910156-8.8125 27.125-27.582031 14.632813-46.496094 40.667969-51.890625 71.421875-1.726563 9.832031-10.191406 16.972656-20.132813 16.972656-.96875 0-1.960937-.070312-2.9375-.210937-4.652343-.65625-9.390624-.992188-14.082031-.992188-26.21875 0-51.039062 10.042969-69.882812 28.273438-3.847657 3.722656-8.910157 5.769531-14.261719 5.769531zm0 0" fill="#fedd60"/><path d="m38.066406 259.574219c-10.867187 22.230469-6.875 47.949219 8.253906 65.761719h419.359376c15.125-17.8125 19.121093-43.53125 8.253906-65.761719zm0 0" fill="#e6b82a"/><path d="m74 277.140625c-4.886719 9.996094-1.015625 21.910156 8.816406 27.125 10.402344 5.519531 19.570313 12.664063 27.25 21.070313h291.867188c7.679687-8.40625 16.847656-15.550782 27.253906-21.070313 9.828125-5.214844 13.699219-17.128906 8.808594-27.125zm0 0" fill="#fecc2e"/><path d="m512 171.570312h-512l29 61.429688-29 61.429688h512l-29-61.429688zm0 0" fill="#f25759"/><path d="m183.472656 131.960938c-4.269531 0-7.726562-3.457032-7.726562-7.726563v-13.125c0-4.265625 3.457031-7.726563 7.726562-7.726563 4.265625 0 7.726563 3.460938 7.726563 7.726563v13.125c0 4.269531-3.460938 7.726563-7.726563 7.726563zm0 0" fill="#3a484a"/><path d="m328.527344 131.960938c-4.265625 0-7.726563-3.457032-7.726563-7.726563v-13.125c0-4.265625 3.460938-7.726563 7.726563-7.726563 4.269531 0 7.726562 3.460938 7.726562 7.726563v13.125c0 4.269531-3.457031 7.726563-7.726562 7.726563zm0 0" fill="#3a484a"/><path d="m256 138.96875c-9.207031 0-17.851562-3.847656-23.71875-10.558594-2.808594-3.214844-2.480469-8.09375.734375-10.902344 3.210937-2.808593 8.09375-2.480468 10.902344.730469 2.929687 3.355469 7.335937 5.277344 12.082031 5.277344s9.152344-1.921875 12.082031-5.277344c2.808594-3.214843 7.691407-3.539062 10.902344-.730469 3.214844 2.804688 3.542969 7.6875.734375 10.902344-5.867188 6.710938-14.511719 10.558594-23.71875 10.558594zm0 0" fill="#3a484a"/><g fill="#efedee"><path d="m164.285156 252.835938c0-17.144532-36.683594-11.886719-36.683594-38.972657 0-17.03125 14.628907-22.859375 27.769532-22.859375 6.746094 0 21.714844 1.601563 21.714844 9.144532 0 2.628906-1.828126 7.886718-5.941407 7.886718-3.542969 0-6.171875-4.34375-15.773437-4.34375-8.226563 0-12.914063 3.3125-12.914063 8.800782 0 14.171874 36.6875 9.253906 36.6875 38.855468 0 16.34375-11.429687 24.800782-27.199219 24.800782-14.972656 0-26.402343-7.542969-26.402343-14.171876 0-3.199218 2.972656-8 6.515625-8 4.6875 0 7.769531 8.800782 19.429687 8.800782 6.855469 0 12.796875-3.085938 12.796875-9.941406zm0 0"/><path d="m183.484375 268.949219c0-.226563.117187-.683594.230469-1.140625l22.054687-71.886719c1.03125-3.429687 5.257813-5.03125 9.488281-5.03125 4.34375 0 8.570313 1.601563 9.601563 5.03125l22.054687 71.886719c.113282.457031.230469.796875.230469 1.140625 0 3.542969-5.371093 6.171875-9.371093 6.171875-2.515626 0-4.457032-.800782-5.03125-2.972656l-4.339844-15.199219h-26.171875l-4.34375 15.199219c-.574219 2.171874-2.515625 2.972656-5.03125 2.972656-4 0-9.371094-2.515625-9.371094-6.171875zm41.714844-23.65625-9.941407-35.085938-9.945312 35.085938zm0 0"/><path d="m261.542969 275.121094c-3.3125 0-6.511719-1.597656-6.511719-4.683594v-74.289062c0-3.199219 3.65625-4.570313 7.425781-4.570313 3.660157 0 7.429688 1.371094 7.429688 4.570313v65.945312h27.886719c2.972656 0 4.457031 3.199219 4.457031 6.515625 0 3.199219-1.488281 6.511719-4.457031 6.511719zm0 0"/><path d="m325.203125 227.464844h17.371094c2.972656 0 4.683593 2.855468 4.683593 5.941406 0 2.628906-1.484374 5.714844-4.683593 5.714844h-17.371094v22.972656h32.34375c2.96875 0 4.683594 3.085938 4.683594 6.628906 0 3.085938-1.484375 6.398438-4.683594 6.398438h-40.6875c-3.316406 0-6.515625-1.597656-6.515625-4.683594v-74.175781c0-3.085938 3.199219-4.683594 6.515625-4.683594h40.6875c3.199219 0 4.683594 3.3125 4.683594 6.398437 0 3.542969-1.714844 6.628907-4.683594 6.628907h-32.34375zm0 0"/><path d="m384.402344 268.035156c0 4.117188-3.542969 7.773438-7.773438 7.773438-4.457031 0-7.773437-3.65625-7.773437-7.773438 0-4.226562 3.316406-7.769531 7.773437-7.769531 4.230469 0 7.773438 3.542969 7.773438 7.769531zm-2.289063-20.34375c0 3.085938-3.3125 4.34375-5.597656 4.34375-2.972656 0-5.601563-1.257812-5.601563-4.34375 0-15.085937-1.484374-35.199218-1.484374-50.285156 0-4 3.085937-6.285156 7.085937-6.285156 3.882813 0 7.199219 2.285156 7.199219 6.285156 0 15.085938-1.601563 35.199219-1.601563 50.285156zm0 0"/></g></svg>